<?xml version="1.0" encoding="UTF-8"?>
<svg id="_圖層_1" data-name="圖層 1" xmlns="http://www.w3.org/2000/svg" viewBox="0 0 606.35 1204.7">
  <defs>
    <style>
      .cls-1 {
        fill: #3d2c1f;
      }
    </style>
  </defs>
  <path class="cls-1" d="M304.04,442.58c-.59.97-1.51,3.05-1.6,4.09l-2.13,23.24-7.99,79.75-6.44,89.68,6.59-30.38,9.73-30.07,4.24-11.01,8.75-21.48c5.21-12.8,9.91-25.33,12.15-39.09,1.67-10.28,2.24-20.48-.31-30.54l-2.59-10.22c26.63,25.23,37.74,64.99,28.32,100.02-7.43,27.61-17.98,43.09-33.05,65.95l-10.39,15.75c-5.14,7.79-9.58,15.66-12.34,24.56l-4.12,13.3c-4.6,20.87-1.25,40.66,6.43,60.99-8.99-15.59-13.49-33.11-15.67-50.8-2.63-21.38-3.31-42.27-1.6-63.81l4.53-56.9c3.55-44.59,8.49-88.07,3.94-133.29-14.31-2.8-26.1-12.59-32.59-24.96-10.51-20.04-7.97-42.15-5.03-63.66l1.77-12.91c.17-1.24,1.78-2.44,3.27-2.12l17.77,3.79c0-4.4,1.91-10.54,4.2-15.1l8.43.21c11,1.63,21.4,6.52,27.99,16.14l-12.63-7.31c-6.84-2.77-14.06-4.3-21.51-5.12-1.78,4.16-3.36,7.82-5.89,11.46,5.02,1.82,10.74,4.38,14.97,8.47l6.97,6.75-.35,1.11c-4.86-4.1-8.4-7.87-13.78-10.33-8.25-3.79-17.06-6-26.28-7.26l-.07,23.16-.47,21.77c-.18,8.52,2.01,16.66,5.19,24.52,3.66,9.05,10.03,16.46,18.19,21.59,11.65,7.33,26.17,6.87,38.27.41,5.8-3.1,10.28-7.11,14.52-12.14,14.53-17.22,17.36-38.39,16.87-60.38l-.45-20.19c-11.37,1.17-21.97,5.44-30.45,12.64-9.12,7.74-16.12,16.25-20.68,27.25-7.24,17.46-8.2,35.57-2.74,53.71-5.52-8.53-6.52-17.91-6.86-27.52-.7-19.85,6.26-38.99,20.13-53.19l5.41-4.91c9.94-8.02,22.36-12.07,35.12-12.18.6,0,1.96.28,2.39.5.54.28,1.06,1.59,1.09,2.3l.97,24.02c.54,13.35-1.39,26.2-5.49,38.88-3.02,9.34-7.82,17.66-14.19,25-6.67,7.68-19.59,15.74-30.49,15.85ZM288.98,688.88c2.61-11.26,4.76-21.75,10.12-31.61l16.39-30.09,12.81-23.52c5.69-10.45,9.65-21.49,12.84-32.97,8.77-31.57,4.37-64.34-11.88-92.55,3.18,16.63.94,35.53-4.69,51.15l-7.85,21.76-6.61,17.05c-5.91,15.24-10.67,30.22-14.18,46.24l-4.99,30.22c-1.58,14.91-2.95,29.49-1.97,44.31Z"/>
  <path class="cls-1" d="M523.75,782.06c0,11.76-.91,23.51-2.76,35.12-1.79,11.31-4.46,22.48-7.99,33.38-3.45,10.68-7.72,21.09-12.76,31.12-5.01,9.95-10.76,19.53-17.2,28.62-6.41,9.05-13.49,17.62-21.17,25.62-7.68,8-15.95,15.42-24.74,22.19-8.77,6.75-18.04,12.85-27.72,18.22-9.8,5.44-20.01,10.13-30.52,14.01-10.66,3.93-21.62,7.05-32.76,9.28-11.39,2.28-22.97,3.67-34.58,4.12-11.64.45-23.31.01-34.87-1.37-11.32-1.35-22.52-3.58-33.48-6.67s-21.4-6.96-31.62-11.65c-10.12-4.64-19.87-10.06-29.16-16.18-9.25-6.09-18.05-12.88-26.29-20.29-8.24-7.41-15.92-15.43-22.97-23.98-7.04-8.53-13.44-17.59-19.12-27.08-5.75-9.6-10.77-19.64-15.01-30-4.29-10.5-7.78-21.33-10.41-32.37-2.69-11.3-4.49-22.81-5.38-34.4-.43-5.71-.65-11.43-.65-17.15,0-1.42-4.01-1.81-4.01-.55,0,11.85.94,23.69,2.79,35.39,1.81,11.42,4.52,22.7,8.09,33.7,3.51,10.81,7.86,21.35,12.99,31.49,5.1,10.08,10.97,19.77,17.53,28.97,6.5,9.12,13.68,17.75,21.47,25.79s16.2,15.51,25.1,22.32c8.92,6.83,18.36,12.98,28.21,18.38,9.97,5.47,20.34,10.2,31.02,14.1,10.93,3.99,22.15,7.12,33.56,9.39,11.62,2.31,23.43,3.68,35.26,4.15,11.86.47,23.77,0,35.56-1.37,11.64-1.36,23.18-3.64,34.47-6.8,11-3.08,21.75-7.03,32.15-11.75,10.27-4.66,20.17-10.11,29.61-16.28s18.28-12.96,26.65-20.41c8.35-7.44,16.15-15.51,23.3-24.11,7.17-8.63,13.69-17.8,19.48-27.4,5.82-9.66,10.9-19.77,15.2-30.19,4.37-10.59,7.91-21.52,10.58-32.66s4.57-23.09,5.48-34.82c.44-5.76.66-11.54.66-17.32,0-1.42-4.01-1.82-4.01-.55h0Z"/>
  <path class="cls-1" d="M82.6,483.83c0-11.76.91-23.51,2.76-35.12,1.79-11.31,4.46-22.48,7.99-33.38,3.45-10.68,7.72-21.09,12.76-31.12,5.01-9.95,10.76-19.53,17.2-28.62,6.41-9.05,13.49-17.62,21.17-25.62,7.68-8,15.95-15.42,24.74-22.19s18.04-12.85,27.72-18.22c9.8-5.44,20.01-10.13,30.52-14.01,10.66-3.93,21.62-7.05,32.76-9.28s22.97-3.67,34.58-4.12c11.64-.45,23.31-.01,34.87,1.37,11.32,1.35,22.52,3.58,33.48,6.67,10.82,3.06,21.4,6.96,31.62,11.65,10.12,4.64,19.87,10.06,29.16,16.18,9.25,6.09,18.05,12.88,26.29,20.29,8.24,7.41,15.92,15.43,22.97,23.98,7.04,8.53,13.44,17.59,19.12,27.08,5.75,9.6,10.77,19.64,15.01,30,4.29,10.5,7.78,21.33,10.41,32.37,2.69,11.3,4.49,22.81,5.38,34.4.43,5.71.65,11.43.65,17.15,0,1.42,4.01,1.81,4.01.55,0-11.85-.94-23.69-2.79-35.39-1.81-11.42-4.52-22.7-8.09-33.7-3.51-10.81-7.86-21.35-12.99-31.49-5.1-10.08-10.97-19.77-17.53-28.97-6.5-9.12-13.68-17.75-21.47-25.79-7.79-8.05-16.2-15.51-25.1-22.32-8.92-6.83-18.36-12.98-28.21-18.38-9.97-5.47-20.34-10.2-31.02-14.1-10.93-3.99-22.15-7.12-33.56-9.39-11.62-2.31-23.43-3.68-35.26-4.15-11.86-.47-23.77,0-35.56,1.37s-23.18,3.64-34.47,6.8c-11,3.08-21.75,7.03-32.15,11.75-10.27,4.66-20.17,10.11-29.61,16.28-9.38,6.13-18.28,12.96-26.65,20.41-8.35,7.44-16.15,15.51-23.3,24.11-7.17,8.63-13.69,17.8-19.48,27.4-5.82,9.66-10.9,19.77-15.2,30.19s-7.91,21.52-10.58,32.66c-2.75,11.44-4.57,23.09-5.48,34.82-.44,5.76-.66,11.54-.66,17.32,0,1.42,4.01,1.82,4.01.55h0Z"/>
  <g>
    <path class="cls-1" d="M216.37,908.83v-3.58h-4.92l-.31-1.18h5.23v-3.34h-5.86l-.31-1.18h6.18v-4.25l3.86.43c-.04.55-.47.95-1.42,1.1v2.71h2.28l1.65-2.01s1.77,1.46,2.91,2.56c-.12.43-.47.63-.98.63h-5.86v3.34h2.4l1.42-1.73s1.57,1.3,2.56,2.28c-.12.43-.47.63-.98.63h-5.39v3.58h3.38l1.57-1.97s1.85,1.46,2.99,2.48c-.12.43-.51.63-1.02.63h-16.13l-.31-1.14h7.08ZM222.5,911.83l3.03,2.28c-.2.28-.83.59-1.54.75v13.18c0,1.89-.39,2.99-3.38,3.27-.08-.63-.24-1.26-.67-1.61-.39-.35-1.14-.63-2.44-.83v-.63s2.75.24,3.38.24c.59,0,.75-.24.75-.75v-4.76h-7.99c-.28,2.95-1.14,6.06-3.82,8.3l-.47-.47c2.01-3.23,2.01-7.24,2.01-11.14v-7.67l2.87,1.3h7l1.26-1.46ZM221.64,921.78v-3.11h-7.87v.98c0,.67,0,1.38-.04,2.12h7.91ZM213.77,914.46v3.03h7.87v-3.03h-7.87ZM243.68,912.26s1.53,1.3,2.52,2.32c-.12.43-.47.63-.98.63h-2.99v6.93c-.04.24-1.22.79-2.01.79h-.35v-2.01h-4.41v6.61c0,1.97-.47,3.46-3.94,3.82-.04-.75-.32-1.5-.79-1.81-.59-.47-1.57-.79-3.42-.98v-.63s4.05.32,4.84.32.94-.24.94-.83v-6.49h-5.86l-.35-1.14h6.22v-4.57h-7.24l-.31-1.18h7.56v-4.45h-5.47l-.35-1.18h12.2l1.38-1.42,2.91,2.24c-.24.28-.83.59-1.53.75v4.05h.16l1.3-1.77ZM244.31,898.05c-.35.35-1.02.35-1.93,0-4.05.79-10.31,1.42-15.86,1.46l-.16-.67c5.31-.67,11.69-2.24,15.03-3.54l2.91,2.75ZM227.23,901c6.06,3.19,3.66,7.71,1.61,5.86,0-1.89-1.06-4.21-2.09-5.63l.47-.24ZM232.54,900.53c5.98,3.34,3.5,8.11,1.46,6.14.16-1.97-.87-4.45-1.93-5.94l.47-.2ZM235.45,914.03h4.41v-4.45h-4.41v4.45ZM239.86,915.21h-4.41v4.57h4.41v-4.57ZM237.62,907.46c1.02-2.01,2.28-5.12,3.23-8.03l3.58,1.42c-.16.47-.63.75-1.38.67-1.46,2.24-3.23,4.72-4.84,6.3l-.59-.35Z"/>
    <path class="cls-1" d="M271.86,900.69s1.85,1.46,2.99,2.56c-.12.43-.43.63-.98.63h-12.99l-.31-1.14h9.68l1.61-2.05ZM269.18,907.69l1.5-1.81s1.65,1.34,2.75,2.36c-.12.43-.47.63-1.02.63h-10l-.31-1.18h7.08ZM270.68,910.88s1.65,1.34,2.75,2.36c-.12.43-.47.63-1.02.63h-10l-.31-1.14h7.08l1.5-1.85ZM273.82,918.51c-.24.28-.87.59-1.61.75v9.52c-.04.24-1.18.83-2.01.83h-.35v-1.73h-5.04v2.24c0,.24-.98.83-1.97.83h-.39v-14.4l2.56,1.14h4.45l1.38-1.46,2.99,2.28ZM264.3,895.73c7.52,2.17,5.43,7.24,2.83,5.51-.47-1.73-2.05-3.9-3.27-5.23l.43-.28ZM269.85,926.74v-7.91h-5.04v7.91h5.04ZM272.21,915.13c2.4-1.26,4.76-2.72,6.93-4.41v-11.06l3.34.39c-.08.47-.43.83-1.18.94v7.95c4.41-3.74,7.99-8.03,10.19-12.08l3.27,1.73c-.24.39-.63.51-1.57.32-2.56,4.01-6.73,8.34-11.88,12v.16c0,.55.16.71,1.54.71h3.5c1.65,0,2.95-.04,3.38-.08.39,0,.55-.08.71-.35.24-.47.63-2.08.98-3.74h.51l.12,3.82c.79.28.98.51.98.98,0,.98-1.1,1.42-6.73,1.42h-3.86c-2.28,0-3.07-.39-3.27-1.54-2.05,1.26-4.29,2.44-6.57,3.38l-.39-.55ZM295.04,926.7s1.69,1.61,2.68,2.79c-.12.43-.47.63-1.02.63h-23.69l-.32-1.14h2.99v-13.38l2.68,1.22h12.36l1.3-1.65,3.23,2.4c-.32.43-.79.63-1.77.75v10.66h.16l1.42-2.28ZM276.93,902.03c.47,3.03,0,5.59-.75,6.85-.47.79-1.73,1.26-2.28.63-.47-.59-.2-1.42.43-2.08.75-.98,1.77-3.5,1.85-5.47l.75.08ZM277.92,928.98h3.27v-10.98h-3.27v10.98ZM282.4,895.26c6.93,3.11,4.92,8.07,2.68,6.26-.24-1.97-1.85-4.49-3.15-6.02l.47-.24ZM286.1,918h-2.91v10.98h2.91v-10.98ZM288.15,918v10.98h3.03v-10.98h-3.03ZM291.57,902.89c7.08,3.19,5,8.07,2.79,6.22-.28-1.97-1.85-4.45-3.27-5.9l.47-.31Z"/>
    <path class="cls-1" d="M326.48,897.97s2.05,1.57,3.23,2.79c-.12.43-.47.63-1.02.63h-6.61l.55,3.9c-.35.47-1.26.71-2.32.71l-.63-4.6h-7.63l-.31-1.14h7.79l-.67-4.88,3.74.28c-.08.51-.35.91-1.18,1.1l.47,3.5h2.83l1.77-2.28ZM312.32,920.09c3.78-2.95,7.87-8.19,10.39-14.05l3.74,1.77c-.2.43-.71.75-1.57.59-.98,1.77-2.2,3.42-3.46,4.92l1.97.75c-.16.31-.51.59-1.22.71v15.86c-.04.2-1.14.71-2.09.71h-.47v-16.02c-2.12,2.2-4.53,3.97-6.85,5.27l-.43-.51ZM346.36,927.49c.94.31,1.18.59,1.18,1.14,0,1.22-1.42,1.65-8.07,1.65h-4.6c-3.31,0-4.13-.71-4.13-2.91v-20.86l3.86.43c-.08.51-.43.91-1.3,1.02v7.36h7.79l1.85-2.36s2.05,1.65,3.35,2.91c-.12.43-.47.63-1.02.63h-11.96v10.27c0,.87.24,1.1,1.97,1.1h4.29c1.97,0,3.46,0,4.05-.04.47-.08.63-.2.83-.59.31-.71.83-3.19,1.3-5.78h.51l.12,6.02ZM344.9,897.97s2.05,1.57,3.23,2.79c-.08.43-.43.63-.98.63h-8.62l-.67,4.05c-.47.35-1.42.47-2.48.24l.71-4.29h-4.84l-.31-1.14h5.35l.79-4.92,3.7.87c-.16.47-.55.83-1.54.83l-.51,3.23h4.45l1.73-2.28Z"/>
    <path class="cls-1" d="M367.85,908.99v21.29c0,.35-.87,1.02-2.05,1.02h-.47v-34.75l2.72,1.26h7.71l1.3-1.42,2.95,2.24c-.24.28-.79.59-1.46.71v10.62c-.04.24-1.3.79-2.12.79h-.31v-1.77h-8.26ZM367.85,899v3.78h8.26v-3.78h-8.26ZM376.11,907.85v-3.94h-8.26v3.94h8.26ZM389.73,914.07c-.24.31-.79.63-1.46.75v12c-.04.28-1.3.91-2.12.91h-.35v-2.12h-9.56v1.65c0,.24-1.02.83-2.05.83h-.39v-15.98l2.6,1.22h9.05l1.34-1.5,2.95,2.24ZM376.23,914.42v4.29h9.56v-4.29h-9.56ZM385.79,924.42v-4.53h-9.56v4.53h9.56ZM398.58,898.68c-.28.31-.94.67-1.73.83v28.02c0,2.09-.39,3.42-4.13,3.82-.08-.83-.28-1.53-.79-1.93-.63-.43-1.61-.75-3.38-1.02v-.63s3.97.32,4.8.32c.75,0,.98-.24.98-.87v-18.22h-8.58v.87c0,.24-1.1.79-2.16.79h-.35v-13.97l2.68,1.14h8.03l1.3-1.61,3.34,2.48ZM385.75,899v3.78h8.58v-3.78h-8.58ZM394.33,907.85v-3.94h-8.58v3.94h8.58Z"/>
  </g>
  <g>
    <path class="cls-1" d="M196.03,773.13c.72-.72,1.21-1.47,1.45-2.25.21-.64.52-.96.92-.96.21,0,.46.13.72.4.19.97.46,2.91.8,5.83l.97,7.56c0,.48-.3.72-.88.72-.32,0-.6-.27-.84-.8-1.42-3.51-3.53-6.44-6.32-8.77-2.79-2.31-5.83-3.46-9.13-3.46s-5.69.98-7.34,2.94c-1.65,1.96-2.47,4.04-2.47,6.23,0,2.68.9,4.73,2.69,6.15,1.8,1.42,5.5,3.03,11.1,4.83,4.13,1.29,7.22,2.53,9.27,3.74,2.05,1.21,3.77,2.9,5.17,5.07,1.39,2.17,2.09,4.5,2.09,7,0,4.24-1.76,8.03-5.27,11.38-3.51,3.35-7.82,5.03-12.91,5.03-4.58,0-9.2-1.43-13.84-4.3-.91.75-1.5,1.64-1.77,2.65-.21.86-.56,1.29-1.05,1.29-.43,0-.74-.55-.93-1.65s-.58-6.3-1.17-15.61c.11-.32.39-.48.84-.48.4,0,.72.3.96.88,4.13,10.38,9.89,15.57,17.3,15.57,3.67,0,6.55-1.11,8.63-3.32,2.08-2.21,3.12-4.75,3.12-7.62,0-1.98-.56-3.81-1.67-5.47-1.11-1.66-2.59-3-4.42-4.02-1.84-1.02-4.74-2.16-8.71-3.42-5.09-1.64-8.56-3.18-10.4-4.65-1.84-1.46-3.18-3.11-4.04-4.95-.86-1.84-1.29-3.61-1.29-5.33,0-3.57,1.61-6.73,4.85-9.49,3.23-2.76,7.19-4.14,11.88-4.14,1.77,0,3.63.28,5.57.84,1.94.56,3.98,1.42,6.09,2.57Z"/>
    <path class="cls-1" d="M216.42,804.14c-.11,1.37-.16,2.45-.16,3.26,0,3.81,1.12,7.03,3.37,9.65,2.24,2.63,5.02,3.94,8.32,3.94s6.22-1.29,8.99-3.86c.81-.72,1.32-1.09,1.53-1.09.43,0,.66.35.68,1.05-1.02,1.88-2.76,3.46-5.23,4.75s-5.22,1.93-8.25,1.93c-4.45,0-8.22-1.6-11.31-4.81-3.08-3.2-4.63-7.26-4.63-12.17,0-5.25,1.7-9.64,5.09-13.15,3.39-3.51,7.02-5.27,10.88-5.27,3.62,0,6.89,1.37,9.81,4.12,2.92,2.75,4.38,5.97,4.38,9.67,0,.56-.09.98-.26,1.25s-1.2.4-3.08.4l-20.14.32ZM216.42,802.05c3.49.16,6.88.24,10.16.24l2.14-.12c1.61-.05,2.85-.37,3.71-.95.86-.58,1.29-1.59,1.29-3.04,0-2.25-.77-4.22-2.32-5.89-1.55-1.68-3.37-2.51-5.46-2.51-1.94,0-3.86.96-5.79,2.88-1.92,1.92-3.17,5.05-3.73,9.39Z"/>
    <path class="cls-1" d="M256.28,797.51c1.69-3.01,3.49-5.26,5.41-6.76,1.92-1.5,3.93-2.25,6.05-2.25,1.47,0,2.75.53,3.82,1.59,1.07,1.06,1.61,2.26,1.61,3.6,0,2.55-1.09,3.82-3.26,3.82-1.02,0-1.88-.71-2.57-2.13-.86-1.8-2-2.69-3.42-2.69-1.34,0-2.72.75-4.14,2.26-1.42,1.5-2.37,3.15-2.86,4.93-.48,1.79-.72,5.52-.72,11.22,0,5.21.21,8.2.64,8.96.43.77,1.53,1.25,3.3,1.47.48.05.72.24.72.56,0,.56-.63.84-1.89.84h-12.83c-.91,0-1.37-.23-1.37-.68,0-.43.6-.67,1.81-.72,1.69-.11,2.74-.63,3.14-1.57.4-.94.6-4.4.6-10.39,0-8.78-.18-14.06-.54-15.83-.36-1.77-1.71-2.71-4.04-2.82-.97-.05-1.45-.31-1.45-.76,0-.24.1-.42.3-.54.2-.12,1.43-.25,3.68-.38l7.4-.4c.19,1.45.39,4.35.6,8.7Z"/>
    <path class="cls-1" d="M284.24,804.14c-.11,1.37-.16,2.45-.16,3.26,0,3.81,1.12,7.03,3.37,9.65,2.24,2.63,5.02,3.94,8.32,3.94s6.22-1.29,8.99-3.86c.81-.72,1.32-1.09,1.53-1.09.43,0,.66.35.68,1.05-1.02,1.88-2.76,3.46-5.23,4.75s-5.22,1.93-8.25,1.93c-4.45,0-8.22-1.6-11.31-4.81-3.08-3.2-4.63-7.26-4.63-12.17,0-5.25,1.7-9.64,5.09-13.15,3.39-3.51,7.02-5.27,10.88-5.27,3.62,0,6.89,1.37,9.81,4.12,2.92,2.75,4.38,5.97,4.38,9.67,0,.56-.09.98-.26,1.25s-1.2.4-3.08.4l-20.14.32ZM284.24,802.05c3.49.16,6.88.24,10.16.24l2.14-.12c1.61-.05,2.85-.37,3.71-.95.86-.58,1.29-1.59,1.29-3.04,0-2.25-.77-4.22-2.32-5.89-1.55-1.68-3.37-2.51-5.46-2.51-1.94,0-3.86.96-5.79,2.88-1.92,1.92-3.17,5.05-3.73,9.39Z"/>
    <path class="cls-1" d="M322.81,788.49c.64,1.58,1.03,4.25,1.17,8,1.66-2.63,3.5-4.6,5.53-5.91,2.02-1.31,4.23-1.97,6.62-1.97,1.82,0,3.59.34,5.29,1.02,1.7.68,3.02,1.86,3.94,3.54.93,1.67,1.39,4.52,1.39,8.54l-.24,13.54c0,2.49.21,4.05.62,4.68.42.63,1.31,1.13,2.67,1.51.94.27,1.41.56,1.41.88,0,.4-.23.6-.68.6-.19,0-.38-.01-.56-.04-1.23-.24-3.06-.37-5.47-.37-2.17,0-4.5.09-7,.28-.99,0-1.49-.23-1.49-.68,0-.32.27-.54.8-.64,1.47-.32,2.44-.66,2.9-1,.46-.35.78-.81.96-1.39.19-.58.34-2.51.46-5.8.12-3.29.18-5.97.18-8.03,0-5.65-.71-9.41-2.13-11.29-1.42-1.87-3.19-2.81-5.31-2.81-3.14,0-5.75,1.7-7.82,5.09-2.08,3.39-3.12,9.04-3.12,16.95,0,3.59.23,5.88.7,6.86.47.98,1.64,1.58,3.52,1.79.59.05.88.31.88.76,0,.38-.29.56-.88.56l-2.09-.16c-.75-.05-3.22-.08-7.42-.08l-3.21.08c-1.18,0-1.77-.21-1.77-.64,0-.46.64-.8,1.92-1.04,1.22-.24,2.05-.67,2.48-1.27.43-.6.71-2.61.86-6.02s.22-7.67.22-12.77c0-4.75-.32-7.71-.97-8.86s-1.54-1.87-2.69-2.13c-1.05-.24-1.57-.58-1.57-1.01,0-.46.4-.68,1.21-.68l3.26.04c.35,0,2.16-.04,5.43-.12Z"/>
    <path class="cls-1" d="M367.81,788.37l-.04,9.05.08,8.45v6.35l-.04,4.83c0,1.93.32,3.16.95,3.68.63.52,1.58.81,2.84.87,1.47.08,2.21.39,2.21.92,0,.43-.28.64-.84.64-.21,0-.46-.01-.72-.04-2.49-.32-4.81-.48-6.96-.48-3.43,0-5.81.11-7.12.32-.27.05-.54.08-.8.08-.64,0-.97-.24-.97-.72s.75-.82,2.24-1c1.49-.19,2.44-.52,2.86-.99.41-.47.62-1.8.62-4l.28-16.65c0-4.45-.34-7.08-1.01-7.9-.67-.82-1.97-1.25-3.9-1.31-.64,0-.96-.21-.96-.64,0-.24.11-.43.32-.56.21-.13,1.81-.31,4.79-.52,2.98-.21,5.04-.33,6.19-.36ZM363.35,768.7c1.02,0,1.93.38,2.73,1.13.8.75,1.21,1.57,1.21,2.45,0,1.05-.33,1.95-.99,2.7-.66.75-1.56,1.13-2.71,1.13-1.02,0-1.93-.33-2.74-.99-.8-.66-1.21-1.55-1.21-2.67s.34-2,1.03-2.69c.68-.7,1.57-1.05,2.67-1.05Z"/>
    <path class="cls-1" d="M390.58,792.07c-.38,5.93-.56,11.76-.56,17.48,0,4.4.52,7.28,1.57,8.62,1.05,1.34,2.56,2.01,4.53,2.01,1.43,0,3-.52,4.73-1.57.62-.38,1-.56,1.13-.56.35,0,.52.19.52.56,0,.64-.96,1.66-2.86,3.06-1.91,1.39-4.25,2.09-7.02,2.09s-4.8-.95-6.17-2.86-2.06-4.75-2.06-8.54.24-10.71.72-20.3c-.19-.05-1.46-.15-3.82-.28l-2.41-.16c-.59-.03-.88-.23-.88-.6,0-.35.33-.63,1-.84,1.1-.4,2.94-1.58,5.53-3.53s4.1-4.71,4.53-8.26c.11-.94.41-1.4.91-1.4s.74.38.74,1.12c0,.24-.01.49-.04.76-.08,1.04-.12,2.24-.12,3.61l.04,6.25,8.81-.12c1.5,0,2.28.17,2.33.52-.03,1.23-.23,2.01-.6,2.33-1.39,0-4.91.2-10.54.6Z"/>
    <path class="cls-1" d="M427.5,817.02c2.92-7.93,4.8-13.32,5.63-16.17.83-2.85,1.25-5.14,1.25-6.85,0-2.22-1.39-3.46-4.18-3.7-.78-.08-1.17-.36-1.17-.83,0-.44.31-.66.93-.66.21,0,.94.04,2.17.12.48.03,1.33.04,2.53.04,3.57,0,5.95-.05,7.16-.16.54-.05.91-.08,1.13-.08.67,0,1,.23,1,.7,0,.41-.36.7-1.09.87-2.15.48-3.84,2.04-5.09,4.68-1.25,2.64-3.51,8.77-6.78,18.38-3.19,9.4-5.76,16.19-7.7,20.36s-3.97,7.05-6.07,8.64c-2.11,1.59-4.18,2.39-6.21,2.39s-3.75-.6-4.97-1.81c-1.22-1.21-1.83-2.44-1.83-3.7,0-1.02.41-1.92,1.23-2.7.82-.78,1.66-1.17,2.51-1.17,2.2,0,3.39,1.1,3.58,3.3.11,1.47.76,2.21,1.97,2.21,1.93,0,4.08-2.02,6.46-6.07,2.37-4.05,3.56-7.21,3.56-9.49,0-1.8-.92-4.96-2.75-9.48-1.84-4.53-3.88-9.42-6.13-14.69-2.25-5.26-3.79-8.36-4.61-9.28-.82-.92-1.71-1.46-2.67-1.6-.88-.11-1.33-.39-1.33-.84,0-.53.32-.8.96-.8.27,0,.58.03.92.09,1.56.21,3.34.31,5.35.31,4.29,0,6.9-.08,7.84-.26.56-.1.95-.15,1.17-.15.67,0,1.01.26,1.01.76,0,.43-.59.79-1.77,1.09-2.12.56-3.18,1.58-3.18,3.05,0,1.26,3.06,9.08,9.17,23.47Z"/>
    <path class="cls-1" d="M213.48,863.75h11.45c.35,0,.54.03.59.09.05.06.07.31.07.74v1.17c0,.4-.04.63-.1.69-.07.06-.35.08-.85.08h-11.16c-.55,0-.87-.03-.94-.1-.08-.07-.11-.29-.11-.67v-1.17c0-.43.04-.68.11-.74.08-.06.39-.09.94-.09Z"/>
    <path class="cls-1" d="M246.28,860.02l-.06,5.11c0,3.58.05,5.57.17,6,.11.42.35.86.71,1.3.37.45,1.13.71,2.29.78.62.03.93.18.93.46,0,.3-.22.46-.66.46-.17,0-.6-.03-1.3-.1-1.44-.14-2.71-.21-3.81-.21-.94,0-2.24.05-3.91.15l-1.16.06c-.44,0-.66-.14-.66-.41s.32-.41.97-.41c.88,0,1.52-.25,1.91-.75.39-.5.64-1.76.76-3.8s.18-4.72.18-8.07c0-3.15-.05-5.63-.17-7.44-.11-1.82-.27-3.01-.47-3.57-.2-.57-.5-.97-.9-1.21-.4-.24-1.16-.4-2.28-.47-.44-.03-.66-.16-.66-.4,0-.21.19-.33.58-.36,3.45-.28,9.97-.41,19.57-.41,1.64,0,2.54.02,2.68.07s.25.14.31.27c.06.13.25,1.09.56,2.87.31,1.78.47,2.71.47,2.8,0,.29-.12.43-.37.43-.18,0-.35-.14-.51-.41-1.95-3.38-5.11-5.07-9.49-5.07-1.51,0-2.72.07-3.66.2-.93.13-1.47.29-1.63.48s-.25,1.05-.3,2.6c-.05,1.55-.07,4.25-.07,8.1,1.09.06,1.84.08,2.26.08,1.99,0,3.37-.42,4.16-1.27.78-.85,1.19-1.73,1.23-2.64.03-.61.18-.91.47-.91s.45.21.45.62c0,.14-.02.31-.05.52-.11.8-.16,2.85-.16,6.15v2.4c0,.58-.17.87-.51.87-.29,0-.44-.21-.45-.64-.04-1.24-.43-2.26-1.18-3.05-.74-.79-2.21-1.19-4.4-1.19-.36,0-.96.02-1.82.06Z"/>
    <path class="cls-1" d="M271.67,845.44c.04,1.74.08,3.48.1,5.21l-.04,12.89.08,6.25c0,1.19.17,2.04.51,2.57.34.52,1.07.83,2.18.93.44.04.66.17.66.39,0,.23-.18.35-.54.35-.1,0-.21,0-.35-.02-1.42-.14-3.12-.21-5.09-.21-1.2,0-2.17.06-2.9.18-.15.01-.29.02-.41.02-.41,0-.62-.13-.62-.38,0-.24.19-.37.56-.38,1.26-.01,2.08-.38,2.47-1.09s.59-1.9.59-3.57l-.06-11.8c-.01-3.8-.07-6.06-.16-6.8-.09-.74-.38-1.36-.86-1.85s-1.16-.81-2.03-.95c-.54-.08-.81-.23-.81-.43,0-.23.22-.37.66-.39,2.53-.17,4.42-.47,5.7-.91h.35Z"/>
    <path class="cls-1" d="M277.61,865.17c0-2.43.88-4.56,2.63-6.41s3.91-2.77,6.46-2.77c2.4,0,4.47.83,6.2,2.48,1.73,1.65,2.6,3.72,2.6,6.21s-.91,4.71-2.73,6.61c-1.82,1.9-3.95,2.84-6.38,2.84s-4.47-.87-6.19-2.62c-1.73-1.74-2.59-3.86-2.59-6.34ZM280.97,865.04c0,2.37.55,4.34,1.65,5.92,1.1,1.57,2.45,2.36,4.07,2.36,1.48,0,2.78-.74,3.9-2.21,1.12-1.48,1.69-3.43,1.69-5.87,0-2.18-.54-4.12-1.63-5.82-1.08-1.7-2.49-2.55-4.21-2.55-1.6,0-2.91.78-3.93,2.33-1.02,1.55-1.53,3.51-1.53,5.86Z"/>
    <path class="cls-1" d="M307.77,869.71c2.37-5.52,3.55-8.77,3.55-9.73,0-.47-.13-.94-.38-1.42-.26-.48-.5-.79-.75-.95-.24-.16-.6-.25-1.09-.28-.33-.01-.5-.14-.5-.37,0-.3.18-.46.54-.46l3.67-.08c1.77,0,2.76.02,2.98.05.22.04.33.15.33.34,0,.18-.23.35-.68.5-.83.29-1.24.69-1.24,1.2,0,.15.13.6.38,1.36.26.75.76,2.03,1.53,3.82l2.51,5.76c.94-2.36,1.78-4.7,2.54-7.01.76-2.31,1.14-3.65,1.14-4,0-.71-.44-1.11-1.33-1.19-.51-.06-.77-.21-.77-.48,0-.19.22-.31.66-.34.44-.03,1.37-.05,2.78-.05.92,0,1.52.02,1.78.06.26.04.39.15.39.33s-.28.39-.83.64c-.69.3-1.21.7-1.55,1.19-.35.49-.74,1.52-1.18,3.08-.36,1.27-1.15,3.52-2.38,6.75l-1.98,5.3c-.11.3-.26.46-.44.46s-.39-.35-.64-1.04c-.18-.46-.77-1.87-1.78-4.23-1.38-3.17-2.39-5.62-3.02-7.38l-.14.12c-.4,1.19-.99,2.75-1.78,4.7l-2.15,5.28c-.63,1.57-1,2.4-1.11,2.48s-.19.12-.26.12c-.18,0-.39-.3-.62-.89-1.13-2.9-2.18-5.47-3.13-7.72l-2.36-5.47c-.61-1.38-1.05-2.18-1.33-2.4-.28-.22-.61-.34-.98-.37-.47-.05-.7-.19-.7-.39,0-.3.31-.46.93-.46l4.7-.08,1.95.04c.4,0,.6.1.6.31,0,.28-.27.46-.81.54-.99.16-1.49.5-1.49,1,0,.72,1.48,4.51,4.44,11.36Z"/>
    <path class="cls-1" d="M331.18,864.14c-.06.7-.08,1.26-.08,1.68,0,1.96.58,3.62,1.73,4.97,1.16,1.35,2.58,2.03,4.29,2.03s3.2-.66,4.63-1.99c.42-.37.68-.56.79-.56.22,0,.34.18.35.54-.53.97-1.42,1.78-2.69,2.44-1.27.66-2.69.99-4.25.99-2.29,0-4.23-.82-5.82-2.47-1.59-1.65-2.38-3.74-2.38-6.26,0-2.71.87-4.96,2.62-6.77,1.75-1.81,3.61-2.71,5.6-2.71,1.86,0,3.55.71,5.05,2.12s2.26,3.08,2.26,4.98c0,.29-.04.5-.13.64s-.62.21-1.59.21l-10.37.17ZM331.18,863.06c1.8.08,3.54.12,5.23.12l1.1-.06c.83-.03,1.47-.19,1.91-.49.44-.3.66-.82.66-1.56,0-1.16-.4-2.17-1.19-3.03-.8-.86-1.73-1.29-2.81-1.29-1,0-1.99.49-2.98,1.48s-1.63,2.6-1.92,4.83Z"/>
    <path class="cls-1" d="M351.7,860.73c.87-1.55,1.8-2.71,2.79-3.48.99-.77,2.03-1.16,3.12-1.16.76,0,1.42.27,1.97.82.55.54.83,1.16.83,1.85,0,1.31-.56,1.97-1.68,1.97-.52,0-.97-.37-1.33-1.1-.44-.92-1.03-1.39-1.76-1.39-.69,0-1.4.39-2.13,1.16-.73.77-1.22,1.62-1.47,2.54-.25.92-.37,2.84-.37,5.77,0,2.68.11,4.22.33,4.61.22.39.79.65,1.7.76.25.03.37.12.37.29,0,.29-.32.43-.97.43h-6.61c-.47,0-.7-.12-.7-.35,0-.22.31-.35.93-.37.87-.05,1.41-.32,1.62-.81.21-.48.31-2.27.31-5.35,0-4.52-.09-7.24-.28-8.15-.19-.91-.88-1.4-2.08-1.45-.5-.03-.75-.16-.75-.39,0-.12.05-.22.16-.28.1-.06.74-.13,1.89-.2l3.81-.21c.1.75.2,2.24.31,4.48Z"/>
    <path class="cls-1" d="M373.59,863.75h11.45c.35,0,.54.03.59.09.05.06.07.31.07.74v1.17c0,.4-.04.63-.1.69-.07.06-.35.08-.85.08h-11.16c-.55,0-.87-.03-.94-.1-.08-.07-.11-.29-.11-.67v-1.17c0-.43.04-.68.11-.74.08-.06.39-.09.94-.09Z"/>
  </g>
  <g>
    <path class="cls-1" d="M103.69,612.16l-.07,5.49c0,3.84.06,5.98.18,6.43.12.45.37.92.77,1.4.39.48,1.21.76,2.46.83.67.03,1,.19,1,.49,0,.33-.24.49-.71.49-.18,0-.64-.04-1.4-.11-1.54-.15-2.9-.22-4.09-.22-1.01,0-2.41.05-4.2.16l-1.24.06c-.47,0-.71-.15-.71-.44s.35-.44,1.04-.44c.95,0,1.63-.27,2.04-.8.42-.53.68-1.89.81-4.08.13-2.18.19-5.07.19-8.65,0-3.38-.06-6.04-.18-7.99-.12-1.95-.29-3.22-.5-3.83s-.54-1.04-.97-1.3c-.43-.26-1.24-.43-2.44-.5-.47-.03-.71-.17-.71-.43,0-.23.21-.36.62-.39,3.7-.3,10.7-.44,20.99-.44,1.76,0,2.72.03,2.88.08.16.05.27.15.33.29.07.14.27,1.17.6,3.08s.5,2.91.5,3c0,.31-.13.47-.4.47-.19,0-.37-.15-.55-.44-2.09-3.63-5.48-5.44-10.18-5.44-1.62,0-2.92.07-3.92.21-1,.14-1.58.31-1.74.51-.16.2-.27,1.13-.32,2.79-.05,1.66-.08,4.55-.08,8.69,1.17.06,1.98.09,2.42.09,2.13,0,3.62-.46,4.46-1.37.84-.91,1.28-1.85,1.32-2.83.03-.65.2-.98.51-.98s.49.22.49.67c0,.15-.02.33-.05.56-.12.86-.17,3.06-.17,6.6v2.58c0,.62-.18.93-.55.93-.31,0-.47-.23-.49-.69-.04-1.33-.47-2.42-1.26-3.28s-2.37-1.28-4.72-1.28c-.38,0-1.04.02-1.95.07Z"/>
    <path class="cls-1" d="M130.92,596.52c.04,1.86.08,3.73.11,5.59l-.04,13.83.09,6.7c0,1.27.18,2.19.54,2.75.36.56,1.14.9,2.34,1,.47.04.71.19.71.42,0,.25-.19.38-.58.38-.1,0-.23,0-.38-.02-1.53-.15-3.35-.22-5.46-.22-1.29,0-2.32.07-3.11.2-.16.02-.31.02-.44.02-.44,0-.67-.14-.67-.41,0-.26.2-.4.6-.41,1.35-.01,2.23-.4,2.65-1.17.42-.76.63-2.04.63-3.83l-.07-12.66c-.01-4.07-.07-6.5-.17-7.3-.1-.79-.4-1.46-.92-1.99-.52-.53-1.24-.87-2.18-1.02-.58-.09-.87-.24-.87-.47,0-.25.24-.39.71-.42,2.71-.18,4.75-.5,6.11-.98h.38Z"/>
    <path class="cls-1" d="M137.29,617.68c0-2.6.94-4.9,2.82-6.88s4.19-2.97,6.93-2.97c2.58,0,4.79.89,6.65,2.66,1.86,1.78,2.79,3.99,2.79,6.66s-.98,5.06-2.93,7.09c-1.95,2.03-4.24,3.05-6.84,3.05s-4.79-.94-6.64-2.81c-1.85-1.87-2.78-4.14-2.78-6.8ZM140.89,617.55c0,2.54.59,4.66,1.77,6.35,1.18,1.69,2.63,2.53,4.36,2.53,1.58,0,2.98-.79,4.19-2.37,1.21-1.58,1.81-3.68,1.81-6.3,0-2.34-.58-4.42-1.74-6.24-1.16-1.83-2.67-2.74-4.52-2.74-1.72,0-3.12.83-4.22,2.5s-1.64,3.76-1.64,6.29Z"/>
    <path class="cls-1" d="M165.84,612.92c.93-1.66,1.93-2.91,2.99-3.74s2.17-1.25,3.34-1.25c.81,0,1.52.29,2.11.88.59.59.89,1.25.89,1.99,0,1.41-.6,2.11-1.8,2.11-.56,0-1.04-.39-1.42-1.18-.47-.99-1.1-1.49-1.89-1.49-.74,0-1.5.42-2.29,1.25-.79.83-1.31,1.74-1.58,2.72-.27.99-.4,3.05-.4,6.19,0,2.88.12,4.53.36,4.95s.84.69,1.82.81c.27.03.4.13.4.31,0,.31-.35.47-1.04.47h-7.09c-.5,0-.76-.13-.76-.38,0-.24.33-.37,1-.4.93-.06,1.51-.35,1.73-.87.22-.52.33-2.43.33-5.74,0-4.85-.1-7.76-.3-8.74-.2-.98-.94-1.5-2.23-1.56-.53-.03-.8-.17-.8-.42,0-.13.05-.23.17-.3.11-.07.79-.14,2.03-.21l4.09-.22c.1.8.21,2.4.33,4.8Z"/>
    <path class="cls-1" d="M189.54,624.11c-.73,1.05-1.59,1.84-2.6,2.37-1.01.53-2.15.79-3.42.79-1.5,0-2.67-.4-3.52-1.2-.85-.8-1.28-1.85-1.28-3.16,0-.98.25-1.89.77-2.73.51-.84,1.1-1.45,1.75-1.82.66-.37,1.82-.84,3.48-1.4,2.37-.79,3.79-1.44,4.26-1.96.47-.52.71-1.19.71-2.03,0-1.32-.31-2.35-.93-3.09s-1.5-1.1-2.64-1.1c-.93,0-1.64.21-2.11.62-.47.43-.84,1.27-1.09,2.52-.27,1.37-.85,2.05-1.75,2.05-.33,0-.69-.16-1.08-.49-.39-.33-.59-.81-.59-1.44,0-1.11.61-2.08,1.84-2.9,1.23-.82,2.92-1.23,5.06-1.23,1.7,0,3.06.24,4.08.72,1.01.48,1.65,1.03,1.91,1.66.26.62.39,1.82.39,3.6l-.13,5.87c0,2.27.14,3.88.41,4.84.27.96.78,1.43,1.52,1.43.15,0,.36-.02.62-.07l.38-.04c.34,0,.51.12.51.37,0,.57-1.46.85-4.38.85-.84,0-1.41-.2-1.7-.59s-.45-1.21-.48-2.45ZM189.54,615.45c-.44.58-1.45,1.28-3.02,2.11-1.56.8-2.67,1.56-3.35,2.29-.68.74-1.02,1.63-1.02,2.67,0,.93.28,1.73.83,2.38.55.65,1.25.98,2.08.98s1.67-.26,2.42-.79c.75-.53,1.31-1.2,1.68-2.01.36-.81.54-2.02.54-3.62,0-1.2-.05-2.53-.16-4Z"/>
    <path class="cls-1" d="M204.47,596.52c.04,1.86.08,3.73.11,5.59l-.04,13.83.09,6.7c0,1.27.18,2.19.54,2.75.36.56,1.14.9,2.34,1,.47.04.71.19.71.42,0,.25-.19.38-.58.38-.1,0-.23,0-.38-.02-1.53-.15-3.35-.22-5.46-.22-1.29,0-2.32.07-3.11.2-.16.02-.31.02-.44.02-.44,0-.67-.14-.67-.41,0-.26.2-.4.6-.41,1.35-.01,2.23-.4,2.65-1.17.42-.76.63-2.04.63-3.83l-.07-12.66c-.01-4.07-.07-6.5-.17-7.3-.1-.79-.4-1.46-.92-1.99-.52-.53-1.24-.87-2.18-1.02-.58-.09-.87-.24-.87-.47,0-.25.24-.39.71-.42,2.71-.18,4.75-.5,6.11-.98h.38Z"/>
  </g>
  <g>
    <path class="cls-1" d="M402.11,597.9l4.58-.09c5.79,0,10.17,1.41,13.13,4.22s4.44,6.36,4.44,10.64c0,3.04-.71,5.68-2.13,7.92-1.42,2.24-3.2,3.94-5.33,5.08-2.13,1.14-4.98,1.71-8.53,1.71-.8,0-1.81-.04-3.04-.13-2.19-.18-3.42-.27-3.69-.27-4.86,0-7.72.05-8.57.16-.49,0-.73-.12-.73-.37,0-.17.09-.29.27-.35s.73-.14,1.64-.26c1.18-.16,2.02-.64,2.5-1.42.48-.79.78-3.23.9-7.34l.36-11.76c0-1.36-.09-2.68-.28-3.95-.19-1.27-.47-2.08-.87-2.45-.39-.36-1.02-.61-1.88-.74-.62-.09-.93-.26-.93-.51,0-.31.16-.47.47-.47s1.2.06,2.72.19c1.52.13,3.18.19,4.99.19ZM401.33,619.36c0,1.95.13,3.35.39,4.19.26.84.81,1.53,1.67,2.07s2.22.81,4.1.81c2.7,0,4.88-.64,6.55-1.91,1.67-1.27,2.98-2.97,3.92-5.09.94-2.12,1.41-4.37,1.41-6.75,0-3.52-1.07-6.72-3.22-9.57-2.15-2.86-5.49-4.29-10.02-4.29-2.01,0-3.19.07-3.52.2s-.5.53-.5,1.18c0,.58-.05,1.61-.16,3.09-.15,2.16-.24,3.85-.29,5.06l-.2,6.11c-.09,2.86-.13,4.49-.13,4.91Z"/>
    <path class="cls-1" d="M431.43,616.58c-.06.75-.09,1.35-.09,1.8,0,2.1.62,3.88,1.86,5.33,1.24,1.45,2.77,2.18,4.6,2.18s3.44-.71,4.96-2.13c.45-.4.73-.6.85-.6.24,0,.36.19.38.58-.56,1.04-1.53,1.91-2.89,2.62-1.36.71-2.88,1.07-4.55,1.07-2.46,0-4.54-.88-6.24-2.65s-2.56-4.01-2.56-6.72c0-2.9.94-5.32,2.81-7.26,1.87-1.94,3.88-2.91,6.01-2.91,2,0,3.81.76,5.42,2.28s2.42,3.3,2.42,5.34c0,.31-.05.54-.14.69-.1.15-.66.22-1.7.22l-11.12.18ZM431.43,615.42c1.93.09,3.8.13,5.61.13l1.18-.07c.89-.03,1.57-.2,2.05-.52.47-.32.71-.88.71-1.68,0-1.24-.43-2.33-1.28-3.25-.85-.93-1.86-1.39-3.02-1.39-1.07,0-2.13.53-3.2,1.59s-1.75,2.79-2.06,5.19Z"/>
    <path class="cls-1" d="M461.46,621.08c0,1.71-.64,3.19-1.91,4.42-1.27,1.23-2.78,1.85-4.52,1.85-1.04,0-2.27-.33-3.7-1-.78-.36-1.25-.53-1.4-.53-.25,0-.47.16-.67.47-.24.42-.47.62-.68.62-.18,0-.29-.21-.34-.63-.05-.42-.08-1.38-.09-2.88-.01-1.29-.04-2.12-.07-2.49,0-.55.14-.82.43-.82.17,0,.3.14.39.42.57,1.69,1.38,3.12,2.42,4.3s2.26,1.77,3.66,1.77c.99,0,1.86-.31,2.63-.92.77-.61,1.15-1.45,1.15-2.5,0-1.63-1.41-3.07-4.23-4.33-1.94-.87-3.23-1.5-3.88-1.9-.65-.4-1.16-.94-1.53-1.62s-.55-1.42-.55-2.22c0-1.53.58-2.81,1.74-3.84,1.16-1.03,2.56-1.55,4.21-1.55,1.22,0,2.55.38,4.01,1.13.24.12.45.18.62.18.15,0,.31-.12.49-.37.17-.23.31-.34.41-.34.13,0,.23.06.3.17.07.11.15.77.24,1.96s.13,2.18.13,2.95c0,.48-.13.71-.38.71-.22,0-.4-.21-.53-.64-.12-.4-.47-1.16-1.07-2.28-.59-1.12-1.24-1.84-1.94-2.15-.7-.31-1.4-.46-2.08-.46-1.07,0-1.94.26-2.62.78-.68.52-1.02,1.19-1.02,2.02,0,.52.14.98.42,1.4s.54.72.79.93c.25.21,1.66.89,4.23,2.05,1.6.72,2.65,1.28,3.15,1.67.5.39.93.92,1.27,1.58.34.67.51,1.36.51,2.08Z"/>
    <path class="cls-1" d="M471.44,607.87l-.02,5,.04,4.67v3.51l-.02,2.67c0,1.07.17,1.74.52,2.03.35.29.87.45,1.57.48.81.04,1.22.21,1.22.51,0,.24-.16.36-.47.36-.12,0-.25,0-.4-.02-1.38-.18-2.66-.27-3.84-.27-1.9,0-3.21.06-3.93.18-.15.03-.3.04-.44.04-.36,0-.53-.13-.53-.4s.41-.45,1.24-.56c.82-.1,1.35-.28,1.58-.54.23-.26.34-1,.34-2.21l.16-9.2c0-2.46-.18-3.91-.55-4.36-.37-.45-1.09-.69-2.16-.72-.36,0-.53-.12-.53-.35,0-.13.06-.24.18-.31.12-.07,1-.17,2.64-.29,1.64-.12,2.78-.19,3.42-.2ZM468.97,597.01c.56,0,1.07.21,1.51.62.44.42.67.87.67,1.35,0,.58-.18,1.07-.54,1.49-.36.42-.86.62-1.5.62-.56,0-1.07-.18-1.51-.54s-.67-.86-.67-1.48.19-1.1.57-1.49c.38-.38.87-.58,1.48-.58Z"/>
    <path class="cls-1" d="M493.16,611.03c.67,1.07,1,2.24,1,3.51,0,1.91-.63,3.54-1.89,4.89-1.27,1.35-3.09,2.11-5.46,2.29-1.53.12-2.57.25-3.12.39-.56.14-1.06.42-1.52.84-.46.42-.69.84-.69,1.25,0,.62.36,1.08,1.07,1.38.7.3,2.17.48,4.42.56,3.3.12,5.51.26,6.62.43,1.11.17,2.06.69,2.85,1.55.79.87,1.19,1.98,1.19,3.34,0,2.25-.99,4.08-2.98,5.49s-4.92,2.11-8.8,2.11c-2.87,0-5.03-.37-6.47-1.11-1.44-.74-2.17-1.84-2.17-3.3,0-2.31,2.19-4.18,6.58-5.63-1.85-.3-3.15-.7-3.91-1.21-.75-.51-1.13-1.23-1.13-2.15s.4-1.79,1.19-2.51c.79-.72,1.98-1.33,3.56-1.82-1.42-.41-2.57-1.14-3.43-2.19s-1.3-2.27-1.3-3.68c0-2.03.77-3.8,2.31-5.32s3.5-2.28,5.86-2.28,4.19.79,5.64,2.38c1.53-1.73,2.96-2.6,4.29-2.6.93,0,1.66.27,2.17.8.51.53.77,1.12.77,1.75,0,.4-.15.73-.44,1-.3.27-.65.4-1.07.4-.75,0-1.35-.44-1.8-1.33-.27-.53-.59-.8-.96-.8-.61,0-1.4.52-2.38,1.56ZM488.21,629.08c-1.54,0-2.97.25-4.29.76-1.32.5-2.29,1.11-2.92,1.81-.63.7-.94,1.54-.94,2.52,0,1.3.63,2.3,1.89,2.99,1.26.69,2.84,1.03,4.73,1.03,2.87,0,5-.58,6.4-1.74,1.39-1.16,2.09-2.43,2.09-3.81,0-1.19-.58-2.07-1.73-2.67-1.16-.59-2.9-.89-5.22-.89ZM482.3,614.77c0,2.19.48,3.74,1.43,4.67s1.97,1.39,3.03,1.39c.99,0,1.88-.47,2.68-1.42.79-.95,1.19-2.39,1.19-4.35s-.39-3.57-1.18-4.67c-.79-1.1-1.75-1.65-2.89-1.65-1.26,0-2.28.53-3.08,1.6-.79,1.06-1.19,2.54-1.19,4.43Z"/>
    <path class="cls-1" d="M507.22,607.94c.36.87.57,2.35.64,4.42.92-1.45,1.94-2.54,3.05-3.27s2.34-1.09,3.65-1.09c1.01,0,1.98.19,2.92.57.94.38,1.67,1.03,2.18,1.95s.77,2.5.77,4.71l-.13,7.48c0,1.38.11,2.24.34,2.58.23.35.72.62,1.48.83.52.15.78.31.78.49,0,.22-.13.33-.38.33-.1,0-.21,0-.31-.02-.68-.13-1.69-.2-3.02-.2-1.2,0-2.49.05-3.87.16-.55,0-.82-.13-.82-.38,0-.18.15-.3.44-.36.81-.18,1.35-.36,1.6-.55.25-.19.43-.45.53-.77s.19-1.39.26-3.21c.07-1.82.1-3.3.1-4.44,0-3.12-.39-5.2-1.18-6.23s-1.76-1.55-2.93-1.55c-1.73,0-3.17.94-4.32,2.81-1.15,1.87-1.72,4.99-1.72,9.36,0,1.98.13,3.25.39,3.79.26.54.91.87,1.94.99.33.03.49.17.49.42,0,.21-.16.31-.49.31l-1.15-.09c-.41-.03-1.78-.04-4.1-.04l-1.77.04c-.65,0-.97-.12-.97-.36,0-.25.35-.44,1.06-.58.68-.13,1.13-.37,1.37-.7.23-.33.39-1.44.47-3.33s.12-4.23.12-7.05c0-2.62-.18-4.26-.53-4.89-.35-.64-.85-1.03-1.49-1.18-.58-.13-.87-.32-.87-.56,0-.25.22-.38.67-.38l1.8.02c.19,0,1.19-.02,3-.07Z"/>
    <path class="cls-1" d="M540.12,621.08c0,1.71-.64,3.19-1.91,4.42-1.27,1.23-2.78,1.85-4.52,1.85-1.04,0-2.27-.33-3.7-1-.78-.36-1.25-.53-1.4-.53-.25,0-.47.16-.67.47-.24.42-.47.62-.68.62-.18,0-.29-.21-.34-.63-.05-.42-.08-1.38-.09-2.88-.01-1.29-.04-2.12-.07-2.49,0-.55.14-.82.43-.82.17,0,.3.14.39.42.57,1.69,1.38,3.12,2.42,4.3s2.26,1.77,3.66,1.77c.99,0,1.86-.31,2.63-.92.77-.61,1.15-1.45,1.15-2.5,0-1.63-1.41-3.07-4.23-4.33-1.94-.87-3.23-1.5-3.88-1.9-.65-.4-1.16-.94-1.53-1.62s-.55-1.42-.55-2.22c0-1.53.58-2.81,1.74-3.84,1.16-1.03,2.56-1.55,4.21-1.55,1.22,0,2.55.38,4.01,1.13.24.12.45.18.62.18.15,0,.31-.12.49-.37.17-.23.31-.34.41-.34.13,0,.23.06.3.17.07.11.15.77.24,1.96s.13,2.18.13,2.95c0,.48-.13.71-.38.71-.22,0-.4-.21-.53-.64-.12-.4-.47-1.16-1.07-2.28-.59-1.12-1.24-1.84-1.94-2.15-.7-.31-1.4-.46-2.08-.46-1.07,0-1.94.26-2.62.78-.68.52-1.02,1.19-1.02,2.02,0,.52.14.98.42,1.4s.54.72.79.93c.25.21,1.66.89,4.23,2.05,1.6.72,2.65,1.28,3.15,1.67.5.39.93.92,1.27,1.58.34.67.51,1.36.51,2.08Z"/>
  </g>
</svg>