<svg xmlns="http://www.w3.org/2000/svg" viewBox="0 0 200 200" role="img" aria-label="Serenity Flower tulip mark">
  
  <g fill="none" stroke="#3E2D21" stroke-linecap="round" stroke-linejoin="round">
    
    <rect x="20" y="20" width="160" height="160" stroke-width="3" stroke-linecap="square"></rect>

    
    <path d="M100 116 C 84 96, 84 60, 100 42 C 116 60, 116 96, 100 116 Z" stroke-width="1.75"></path>

    
    <path d="M100 116 C 78 104, 64 80, 74 58 C 90 76, 100 96, 100 116 Z" stroke-width="1.25" stroke-opacity="0.92"></path>

    
    <path d="M100 116 C 122 104, 136 80, 126 58 C 110 76, 100 96, 100 116 Z" stroke-width="1.25" stroke-opacity="0.92"></path>

    
    <circle cx="100" cy="116" r="2" fill="#3E2D21" stroke="none"></circle>

    
    <line x1="100" y1="116" x2="100" y2="166" stroke-width="2" stroke-linecap="square"></line>

    
    <path d="M100 140 C 78 138, 64 150, 60 168 C 80 162, 94 152, 100 144" stroke-width="1.5"></path>

    
    <line x1="62" y1="170" x2="138" y2="170" stroke-width="1" stroke-linecap="square" stroke-opacity="0.7"></line>
  </g>
</svg>