<?xml version="1.0" encoding="UTF-8"?>
<svg id="_圖層_1" data-name="圖層 1" xmlns="http://www.w3.org/2000/svg" viewBox="0 0 606.35 605.9">
  <defs>
    <style>
      .cls-1 {
        fill: #fff;
      }
    </style>
  </defs>
  <path class="cls-1" d="M303.81,243.52c-.43.72-1.11,2.25-1.18,3.02l-1.57,17.13-5.89,58.78-4.74,66.1,4.86-22.39,7.17-22.16,3.12-8.12,6.45-15.84c3.84-9.43,7.3-18.67,8.95-28.81,1.23-7.58,1.65-15.09-.23-22.51l-1.91-7.53c19.63,18.6,27.82,47.9,20.87,73.72-5.47,20.35-13.25,31.76-24.36,48.61l-7.66,11.61c-3.79,5.74-7.06,11.54-9.1,18.1l-3.04,9.8c-3.39,15.38-.92,29.97,4.74,44.95-6.63-11.49-9.94-24.4-11.55-37.45-1.94-15.76-2.44-31.16-1.18-47.03l3.34-41.94c2.61-32.86,6.26-64.91,2.91-98.24-10.55-2.06-19.24-9.28-24.02-18.39-7.75-14.77-5.88-31.06-3.71-46.92l1.3-9.52c.12-.91,1.31-1.8,2.41-1.56l13.1,2.8c0-3.24,1.41-7.77,3.09-11.13l6.21.16c8.1,1.2,15.78,4.81,20.63,11.89l-9.31-5.39c-5.04-2.04-10.36-3.17-15.85-3.77-1.31,3.07-2.48,5.77-4.34,8.45,3.7,1.34,7.91,3.23,11.03,6.24l5.14,4.98-.25.82c-3.59-3.02-6.19-5.8-10.16-7.62-6.08-2.79-12.58-4.42-19.37-5.35l-.05,17.07-.35,16.05c-.14,6.28,1.48,12.28,3.82,18.07,2.7,6.67,7.39,12.13,13.41,15.91,8.59,5.4,19.29,5.06,28.21.3,4.27-2.28,7.58-5.24,10.7-8.95,10.71-12.69,12.8-28.3,12.43-44.5l-.34-14.88c-8.38.86-16.19,4.01-22.44,9.32-6.72,5.7-11.88,11.98-15.25,20.08-5.34,12.87-6.04,26.22-2.02,39.59-4.07-6.29-4.8-13.2-5.05-20.28-.52-14.63,4.62-28.74,14.84-39.2l3.98-3.62c7.32-5.91,16.48-8.89,25.89-8.98.45,0,1.44.2,1.76.37.4.21.78,1.17.8,1.69l.72,17.7c.4,9.84-1.02,19.31-4.04,28.66-2.23,6.88-5.77,13.01-10.46,18.42-4.92,5.66-14.44,11.6-22.48,11.68ZM292.71,425.06c1.92-8.3,3.5-16.03,7.46-23.3l12.08-22.18,9.44-17.33c4.19-7.7,7.11-15.84,9.46-24.3,6.47-23.27,3.22-47.42-8.76-68.22,2.35,12.26.7,26.19-3.45,37.7l-5.78,16.04-4.87,12.56c-4.36,11.23-7.86,22.28-10.45,34.08l-3.67,22.27c-1.16,10.99-2.18,21.73-1.45,32.66Z"/>
  <g>
    <path class="cls-1" d="M147.68,130.01l9.52-8.11c.29-.24.47-.36.56-.34.09.02.28.21.58.56l.83.97c.29.34.42.55.4.65-.02.1-.23.32-.65.67l-9.28,7.91c-.46.39-.75.58-.86.58s-.3-.16-.57-.47l-.83-.97c-.3-.36-.45-.59-.43-.7.02-.11.26-.35.72-.75Z"/>
    <path class="cls-1" d="M165.13,95.06c.1-.57.08-1.07-.06-1.51-.11-.37-.07-.61.12-.74.1-.07.25-.08.46-.05.4.38,1.15,1.2,2.25,2.43l2.88,3.18c.16.22.1.43-.17.62-.15.1-.37.07-.65-.1-1.79-1.16-3.7-1.83-5.74-2.01-2.03-.16-3.8.28-5.32,1.35-1.5,1.04-2.31,2.28-2.44,3.72-.13,1.43.16,2.66.87,3.67.86,1.24,1.94,1.89,3.22,1.97,1.29.08,3.51-.37,6.67-1.35,2.32-.74,4.15-1.16,5.48-1.26,1.33-.1,2.67.12,4.02.67,1.34.55,2.42,1.4,3.22,2.55,1.36,1.95,1.78,4.27,1.24,6.95-.54,2.68-1.99,4.84-4.34,6.48-2.11,1.48-4.7,2.3-7.77,2.47-.18.64-.17,1.24.04,1.79.18.46.16.77-.07.93-.2.14-.52-.02-.96-.46-.44-.45-2.29-2.72-5.56-6.82-.05-.18.02-.35.23-.49.19-.13.43-.1.73.1,5.25,3.46,9.58,3.99,12.99,1.61,1.69-1.18,2.66-2.62,2.91-4.31.25-1.69-.09-3.2-1.02-4.52-.64-.92-1.48-1.58-2.53-1.99-1.05-.41-2.16-.55-3.34-.43-1.18.12-2.88.53-5.12,1.23-2.88.89-4.97,1.29-6.29,1.21-1.32-.08-2.47-.41-3.46-.98-.99-.57-1.76-1.25-2.31-2.04-1.15-1.64-1.42-3.62-.82-5.94s1.98-4.23,4.15-5.74c.82-.57,1.76-1.04,2.84-1.4s2.29-.62,3.64-.78Z"/>
    <path class="cls-1" d="M185.11,103.14c.33.7.6,1.25.82,1.64,1.05,1.87,2.49,3.13,4.32,3.8,1.83.67,3.55.54,5.17-.37,1.58-.89,2.69-2.35,3.33-4.38.2-.58.35-.9.45-.96.21-.12.42-.01.62.32.02,1.2-.4,2.46-1.25,3.77-.85,1.31-2.02,2.39-3.51,3.23-2.18,1.23-4.47,1.49-6.87.77-2.4-.72-4.28-2.28-5.63-4.68-1.46-2.57-1.84-5.19-1.15-7.85.69-2.66,1.98-4.52,3.87-5.59,1.77-1,3.75-1.23,5.95-.7,2.19.54,3.8,1.71,4.82,3.52.16.28.23.5.22.68s-.48.53-1.4,1.05l-9.78,5.73ZM184.53,102.12c1.76-.89,3.44-1.79,5.04-2.69l1.01-.65c.78-.47,1.29-.97,1.56-1.49.26-.52.19-1.13-.21-1.84-.62-1.1-1.54-1.85-2.77-2.24-1.22-.39-2.34-.3-3.37.28-.95.54-1.63,1.54-2.04,3.01-.41,1.47-.15,3.35.77,5.63Z"/>
    <path class="cls-1" d="M203.61,89.23c.16-1.93.55-3.51,1.17-4.73.63-1.22,1.48-2.08,2.56-2.58.75-.35,1.53-.38,2.33-.09.8.29,1.35.78,1.67,1.46.6,1.3.34,2.21-.76,2.72-.52.24-1.13.08-1.82-.48-.86-.72-1.65-.91-2.38-.57-.68.32-1.21,1.02-1.59,2.13-.37,1.1-.47,2.17-.3,3.19.17,1.03.93,2.99,2.27,5.9,1.23,2.66,2.04,4.14,2.44,4.43.4.29,1.08.28,2.03-.02.26-.09.43-.05.5.12.13.29-.12.58-.77.88l-6.56,3.02c-.47.21-.75.21-.86-.03-.1-.22.15-.48.75-.79.84-.45,1.25-.97,1.24-1.54-.02-.57-.73-2.39-2.14-5.45-2.06-4.49-3.4-7.14-4-7.96-.6-.82-1.51-.98-2.73-.49-.51.2-.81.18-.92-.05-.06-.12-.05-.24.03-.35.07-.11.67-.46,1.79-1.06l3.69-1.95c.44.7,1.22,2.13,2.35,4.3Z"/>
    <path class="cls-1" d="M219.84,86.32c.21.74.39,1.33.54,1.75.73,2.01,1.94,3.5,3.63,4.46,1.69.96,3.41,1.12,5.16.49,1.7-.62,3.04-1.88,4.01-3.77.29-.54.49-.83.6-.87.23-.08.41.06.56.42-.18,1.19-.8,2.36-1.86,3.51s-2.39,2.02-3.99,2.61c-2.36.85-4.66.73-6.9-.37-2.25-1.1-3.84-2.95-4.78-5.54-1.01-2.78-.95-5.42.17-7.93,1.12-2.51,2.7-4.13,4.74-4.88,1.91-.7,3.91-.6,5.98.29,2.07.89,3.46,2.32,4.18,4.27.11.3.14.53.1.71-.04.17-.56.44-1.55.8l-10.59,4.04ZM219.44,85.22c1.88-.59,3.68-1.19,5.42-1.82l1.11-.47c.84-.34,1.44-.74,1.78-1.21.34-.47.38-1.09.1-1.85-.43-1.19-1.22-2.08-2.36-2.67-1.14-.59-2.26-.68-3.37-.28-1.02.37-1.86,1.25-2.51,2.63-.65,1.38-.7,3.28-.17,5.68Z"/>
    <path class="cls-1" d="M238.51,70.86c.57.77,1.16,2.17,1.75,4.2.54-1.67,1.27-3,2.19-4,.92-1,2.03-1.67,3.33-2,.99-.26,2-.32,3.02-.18,1.02.13,1.9.59,2.64,1.37s1.39,2.27,1.95,4.46l1.76,7.41c.35,1.36.68,2.18.99,2.46.31.29.87.43,1.67.45.55.01.85.11.89.29.06.22-.04.36-.29.42-.1.03-.21.05-.31.06-.71.04-1.72.23-3.03.57-1.18.3-2.44.68-3.77,1.13-.54.14-.84.08-.91-.17-.04-.17.07-.33.35-.46.76-.38,1.24-.7,1.44-.95.2-.25.31-.55.33-.89.02-.34-.16-1.42-.56-3.23s-.74-3.28-1.03-4.4c-.79-3.08-1.7-5.03-2.74-5.85-1.04-.82-2.13-1.08-3.29-.79-1.71.44-2.89,1.73-3.55,3.87-.66,2.14-.43,5.36.67,9.67.5,1.96.95,3.17,1.34,3.64.39.47,1.12.63,2.17.48.33-.05.53.04.59.29.05.2-.08.35-.4.43l-1.16.2c-.42.08-1.77.41-4.06,1l-1.74.49c-.64.16-.99.13-1.05-.1-.06-.25.24-.53.9-.84.63-.3,1.02-.65,1.17-1.04.15-.39.02-1.52-.37-3.4-.4-1.88-.95-4.21-1.67-6.99-.67-2.59-1.25-4.15-1.77-4.69-.51-.54-1.1-.8-1.77-.79-.6.01-.93-.09-1-.33-.06-.25.12-.43.56-.54l1.78-.43c.19-.05,1.17-.32,2.94-.83Z"/>
    <path class="cls-1" d="M264.14,65.16l.84,5.02.85,4.67.61,3.52.44,2.68c.18,1.07.48,1.72.88,1.95.4.23.95.3,1.65.21.83-.1,1.26,0,1.32.3.04.24-.1.38-.41.44-.12.02-.25.04-.4.05-1.41.06-2.71.19-3.9.4-1.9.33-3.21.62-3.92.86-.14.06-.29.1-.44.12-.36.06-.56-.04-.6-.31-.05-.27.33-.52,1.14-.77.81-.25,1.31-.52,1.49-.82.18-.3.17-1.06-.04-2.28l-1.44-9.26c-.43-2.47-.87-3.9-1.31-4.29-.45-.39-1.21-.51-2.29-.35-.36.06-.56-.03-.6-.26-.02-.13.02-.25.12-.34s.97-.34,2.6-.75c1.63-.4,2.76-.67,3.4-.79ZM259.78,54.69c.56-.1,1.11.02,1.62.36.52.34.82.75.9,1.25.1.58,0,1.11-.29,1.59-.29.48-.76.77-1.4.88-.57.1-1.1,0-1.61-.28-.51-.29-.82-.74-.92-1.37-.11-.61,0-1.14.31-1.59.31-.45.77-.73,1.38-.83Z"/>
    <path class="cls-1" d="M277.77,65.42c.15,3.34.41,6.61.76,9.81.27,2.46.74,4.04,1.41,4.72.67.69,1.55.97,2.65.85.8-.09,1.65-.48,2.55-1.17.32-.25.52-.38.6-.38.2-.02.3.07.33.28.04.36-.43.99-1.41,1.89-.98.9-2.25,1.43-3.8,1.6-1.53.17-2.74-.24-3.63-1.22-.88-.98-1.44-2.53-1.67-4.65-.24-2.21-.52-6-.84-11.39-.11-.02-.83,0-2.15.08l-1.36.06c-.33.02-.51-.07-.53-.28-.02-.19.15-.37.51-.53.59-.29,1.55-1.06,2.88-2.31s2-2.88,2.02-4.9c0-.53.14-.81.42-.84.28-.03.44.16.48.58.01.13.02.28.02.43.02.59.07,1.26.15,2.02l.41,3.49,4.92-.61c.84-.09,1.28-.04,1.34.15.06.69,0,1.14-.2,1.34-.78.09-2.73.41-5.85.99Z"/>
    <path class="cls-1" d="M299.66,78.13c1.54-4.5,2.52-7.55,2.95-9.17.43-1.62.63-2.91.61-3.87-.03-1.25-.83-1.92-2.4-2.02-.44-.04-.66-.19-.67-.45,0-.25.16-.38.51-.38.12,0,.53.01,1.22.04.27,0,.75,0,1.42-.01,2-.05,3.35-.11,4.02-.19.3-.04.51-.06.63-.06.38,0,.57.12.58.38,0,.23-.19.4-.6.5-1.2.3-2.13,1.2-2.8,2.7-.67,1.5-1.86,4.98-3.57,10.43-1.67,5.33-3.02,9.18-4.06,11.55-1.04,2.37-2.14,4.02-3.3,4.94-1.16.92-2.32,1.4-3.46,1.43-1.18.03-2.12-.29-2.82-.95-.7-.66-1.06-1.35-1.08-2.06-.01-.57.21-1.08.65-1.53.45-.45.92-.68,1.4-.69,1.24-.03,1.92.57,2.06,1.81.08.83.46,1.23,1.14,1.22,1.09-.03,2.27-1.19,3.55-3.5,1.28-2.31,1.91-4.1,1.88-5.38-.02-1.01-.58-2.77-1.68-5.3-1.09-2.52-2.31-5.25-3.64-8.18-1.34-2.93-2.24-4.65-2.71-5.16-.47-.51-.98-.8-1.52-.86-.5-.05-.75-.2-.76-.46,0-.3.17-.45.53-.46.15,0,.32,0,.52.04.88.1,1.88.13,3.01.1,2.41-.06,3.88-.14,4.41-.25.32-.06.53-.09.65-.1.38,0,.57.13.58.42,0,.24-.32.45-.98.63-1.18.35-1.77.93-1.75,1.76.02.71,1.84,5.07,5.47,13.08Z"/>
    <path class="cls-1" d="M332.05,68.12l-.85,5.52c-.55,3.87-.8,6.04-.74,6.51.05.47.25.98.57,1.52.33.54,1.11.94,2.36,1.19.67.12.98.34.94.64-.04.33-.31.46-.79.39-.18-.03-.64-.13-1.4-.31-1.53-.37-2.89-.64-4.09-.81-1.01-.14-2.43-.29-4.25-.44l-1.26-.12c-.48-.07-.7-.25-.65-.55.04-.3.41-.4,1.12-.3.96.14,1.68-.04,2.17-.51.49-.48.96-1.81,1.4-3.99s.92-5.08,1.43-8.7c.48-3.4.81-6.1.97-8.08.16-1.98.17-3.29.04-3.93-.13-.64-.39-1.13-.79-1.45-.4-.32-1.19-.61-2.39-.85-.47-.1-.69-.28-.65-.54.03-.23.26-.33.68-.3,3.78.23,10.85,1.09,21.23,2.56,1.78.25,2.74.42,2.89.49.15.08.25.19.29.34.05.15.1,1.21.16,3.19.06,1.97.09,3.01.07,3.1-.04.31-.2.45-.47.41-.19-.03-.36-.2-.49-.53-1.59-3.96-4.75-6.27-9.48-6.95-1.63-.23-2.96-.35-3.99-.35-1.03,0-1.64.09-1.83.26-.19.18-.43,1.1-.72,2.76-.29,1.67-.73,4.58-1.33,8.75,1.17.23,1.98.37,2.43.44,2.15.31,3.72.06,4.69-.74.97-.8,1.55-1.69,1.74-2.67.12-.65.34-.96.65-.91.33.05.46.29.39.74-.02.15-.06.33-.13.55-.24.85-.61,3.06-1.12,6.63l-.37,2.6c-.09.63-.32.91-.69.86-.31-.04-.44-.3-.39-.76.15-1.35-.12-2.51-.8-3.49-.68-.97-2.21-1.63-4.58-1.97-.39-.05-1.04-.13-1.98-.21Z"/>
    <path class="cls-1" d="M364.14,57.97c-.43,1.85-.86,3.7-1.3,5.55l-3.53,13.63-1.6,6.64c-.32,1.26-.37,2.21-.16,2.85.22.65.9,1.17,2.06,1.58.46.16.65.36.59.59-.06.25-.29.32-.67.23-.1-.03-.22-.07-.37-.12-1.47-.53-3.25-1.06-5.34-1.6-1.27-.32-2.31-.52-3.12-.59-.17-.03-.31-.05-.45-.09-.44-.11-.62-.3-.55-.57.06-.25.3-.34.7-.25,1.33.33,2.3.17,2.91-.48.61-.65,1.14-1.85,1.59-3.62l3.13-12.51c1.01-4.02,1.57-6.44,1.68-7.24.1-.81-.03-1.54-.41-2.19-.38-.66-1.01-1.18-1.89-1.56-.55-.23-.79-.46-.74-.68.06-.25.33-.33.81-.24,2.72.51,4.81.7,6.28.58l.37.1Z"/>
    <path class="cls-1" d="M365.17,80.29c.82-2.52,2.45-4.45,4.89-5.78,2.44-1.33,4.99-1.57,7.65-.71,2.5.81,4.37,2.36,5.61,4.67s1.45,4.74.61,7.32c-.84,2.61-2.53,4.59-5.06,5.95-2.53,1.36-5.06,1.63-7.59.81-2.5-.81-4.35-2.41-5.56-4.8s-1.39-4.88-.56-7.46ZM368.69,81.29c-.8,2.46-.89,4.7-.28,6.7s1.76,3.28,3.44,3.82c1.54.5,3.14.17,4.8-.99,1.67-1.16,2.91-3,3.73-5.54.73-2.26.82-4.46.27-6.6-.55-2.13-1.73-3.49-3.52-4.07-1.67-.54-3.29-.17-4.87,1.1-1.58,1.27-2.77,3.13-3.57,5.58Z"/>
    <path class="cls-1" d="M394.27,96.09c4.88-4.39,7.54-7.07,7.98-8.03.21-.47.3-.99.27-1.58-.04-.59-.14-1.02-.3-1.29-.17-.27-.48-.53-.95-.78-.32-.17-.43-.36-.32-.6.14-.3.39-.37.74-.21l3.67,1.6c1.75.81,2.73,1.28,2.93,1.42.2.13.26.3.17.49-.08.18-.38.24-.91.18-.95-.09-1.55.12-1.78.62-.07.15-.15.66-.24,1.52-.09.86-.17,2.36-.23,4.49l-.15,6.86c2.01-1.91,3.92-3.84,5.73-5.79s2.8-3.1,2.96-3.45c.32-.7.07-1.3-.77-1.78-.48-.29-.66-.56-.54-.82.09-.19.36-.2.81-.04.45.17,1.38.58,2.78,1.22.92.42,1.5.72,1.74.88.24.16.32.33.24.51-.08.18-.45.26-1.12.26-.82-.02-1.52.14-2.09.47-.57.33-1.43,1.17-2.58,2.51-.94,1.1-2.75,2.96-5.45,5.61l-4.4,4.35c-.25.25-.46.33-.64.25-.18-.08-.23-.52-.16-1.32.03-.53.09-2.2.17-5.01.08-3.77.21-6.67.38-8.7l-.19.05c-.94,1-2.25,2.28-3.92,3.85l-4.55,4.25c-1.35,1.27-2.09,1.92-2.24,1.96s-.24.04-.31,0c-.18-.08-.25-.47-.21-1.17.2-3.39.35-6.43.43-9.1l.16-6.51c.03-1.65-.04-2.65-.22-3-.18-.35-.45-.62-.81-.82-.44-.27-.61-.51-.52-.71.14-.3.52-.31,1.13-.03l4.7,2.07,1.91.93c.4.18.55.38.45.58-.13.27-.48.33-1.05.16-1.06-.29-1.71-.19-1.94.31-.33.72-.6,5.15-.79,13.3Z"/>
    <path class="cls-1" d="M419.91,102.29c-.45.62-.79,1.13-1.03,1.52-1.11,1.83-1.51,3.7-1.2,5.62.31,1.92,1.26,3.36,2.85,4.33,1.55.94,3.37,1.2,5.45.77.6-.11.95-.14,1.05-.07.21.12.21.36.02.7-1.04.6-2.34.85-3.9.75-1.56-.1-3.07-.6-4.53-1.48-2.14-1.3-3.48-3.17-4.03-5.62-.55-2.44-.1-4.84,1.33-7.2,1.54-2.53,3.63-4.14,6.29-4.83,2.66-.7,4.91-.48,6.77.65,1.74,1.06,2.91,2.68,3.51,4.85.6,2.17.36,4.15-.72,5.93-.17.27-.33.45-.49.52-.16.08-.7-.16-1.6-.71l-9.78-5.73ZM420.52,101.29c1.63,1.1,3.24,2.13,4.81,3.09l1.06.57c.79.45,1.48.66,2.06.63.58-.03,1.08-.39,1.51-1.08.66-1.08.86-2.25.61-3.51s-.88-2.19-1.89-2.8c-.93-.57-2.14-.67-3.62-.31-1.48.36-3,1.5-4.54,3.42Z"/>
    <path class="cls-1" d="M441.08,111.65c1.76-.81,3.33-1.23,4.7-1.28,1.37-.05,2.54.28,3.5.98.67.49,1.07,1.15,1.21,1.99.14.84-.02,1.56-.46,2.17-.85,1.16-1.76,1.38-2.75.66-.46-.34-.62-.94-.46-1.82.21-1.1-.01-1.89-.66-2.36-.61-.44-1.49-.56-2.63-.35-1.14.21-2.12.64-2.93,1.3-.81.65-2.16,2.27-4.05,4.86-1.73,2.37-2.62,3.8-2.68,4.29-.06.49.28,1.08,1.01,1.76.2.18.25.35.14.5-.19.26-.57.17-1.14-.24l-5.83-4.25c-.42-.3-.55-.56-.39-.76.14-.19.5-.1,1.06.27.8.51,1.45.62,1.95.33.5-.29,1.73-1.8,3.72-4.52,2.91-3.99,4.58-6.45,5-7.37.42-.92.12-1.8-.9-2.62-.42-.34-.56-.62-.41-.83.08-.11.19-.16.32-.15.13.01.73.36,1.8,1.05l3.5,2.27c-.4.72-1.26,2.11-2.61,4.15Z"/>
    <path class="cls-1" d="M458.16,129.52l9.1,8.58c.27.26.41.43.4.52,0,.09-.17.3-.5.64l-.88.93c-.3.32-.5.48-.6.47-.1,0-.34-.2-.74-.57l-8.87-8.37c-.44-.41-.66-.68-.67-.79,0-.11.13-.32.41-.62l.88-.93c.32-.34.54-.51.65-.5.11,0,.38.22.82.63Z"/>
  </g>
  <g>
    <path class="cls-1" d="M209.72,509.3l2.07,3.59c-.31.19-1.08.24-1.86.1l-5.63,13.26c-.81,1.9-1.67,2.84-4.8,1.84.19-.67.3-1.37.02-1.91-.24-.52-.88-1.12-2.1-1.87l.27-.63s2.67,1.41,3.3,1.68c.59.25.85.08,1.07-.43l2.03-4.79-8.03-3.41c-1.54,2.85-3.74,5.61-7.38,6.72l-.27-.68c3.4-2.39,5.11-6.42,6.77-10.34l3.28-7.72,2.33,2.53,7.04,2.99,1.89-.93ZM204.59,518.94l1.33-3.13-7.91-3.36-.42.99c-.29.67-.59,1.38-.95,2.12l7.95,3.38ZM204.82,503.67l1.53-3.6-4.95-2.1.19-1.32,5.27,2.24,1.43-3.36-5.9-2.5.19-1.32,6.21,2.64,1.81-4.27,3.7,2.08c-.28.54-.88.75-1.9.5l-1.16,2.73,2.29.98,2.52-1.31s1.16,2.22,1.84,3.82c-.3.38-.74.43-1.26.21l-5.9-2.5-1.43,3.36,2.41,1.02,2.16-1.14s1.03,1.98,1.6,3.39c-.3.38-.74.43-1.26.21l-5.42-2.3-1.53,3.6,3.4,1.45,2.42-1.31s1.24,2.26,1.95,3.77c-.3.39-.78.42-1.3.2l-16.22-6.89.17-1.28,7.12,3.02ZM199.8,508.22l-1.29,3.05,7.91,3.36,1.29-3.05-7.92-3.36ZM230.82,518.78s.99,1.96,1.54,3.41c-.3.38-.74.43-1.26.21l-3.01-1.28-2.96,6.96c-.14.22-1.56.27-2.35-.07l-.36-.15.86-2.02-4.43-1.88-2.82,6.65c-.84,1.98-1.95,3.28-5.59,2.16.28-.77.32-1.64-.02-2.16-.39-.73-1.25-1.46-3.02-2.45l.27-.63s3.94,2.05,4.73,2.38c.75.32,1.05.17,1.3-.43l2.77-6.53-5.9-2.5.13-1.3,6.25,2.66,1.95-4.59-7.28-3.09.19-1.32,7.6,3.23,1.9-4.47-5.5-2.34.15-1.34,12.27,5.21,1.99-.84,1.97,3.5c-.36.18-1.08.24-1.86.1l-1.73,4.08.16.07,2.06-1.23ZM219.09,500.43c4.73,5.79.39,9.32-.88,6.58.81-1.9.73-4.69.31-6.55l.57-.04ZM237.53,504.76c-.51.2-1.18-.08-1.94-.82-4.41-.94-10.97-2.98-16.57-5.31l.13-.74c5.63,1.6,12.71,2.74,16.63,2.86l1.75,4.01ZM225.72,520.11l-4.43-1.88-1.95,4.59,4.43,1.88,1.95-4.59ZM221.8,517.04l4.43,1.88,1.9-4.47-4.43-1.88-1.9,4.47ZM224.63,502.23c4.59,5.92.06,9.65-1.16,6.79,1-1.91,1.03-4.84.6-6.8h.56ZM226.78,511.36c1.89-1.58,4.48-4.17,6.67-6.69l3,2.95c-.36.41-.95.48-1.67.08-2.42,1.63-5.26,3.37-7.56,4.26l-.44-.61Z"/>
    <path class="cls-1" d="M262.33,533.23c-.3.26-1.03.49-1.87.54l-1.58,10.29c-.08.25-1.41.7-2.31.56l-.38-.06.29-1.87-5.44-.84-.37,2.42c-.04.25-1.2.73-2.26.57l-.42-.06,2.39-15.56,2.57,1.66,4.8.74,1.73-1.34,2.85,2.96ZM260.2,524.46s1.56,1.72,2.58,3.01c-.2.45-.62.6-1.21.51l-10.8-1.66-.15-1.29,7.65,1.18,1.92-1.75ZM263.16,513.65s1.76,1.88,2.81,3.26c-.2.45-.57.61-1.17.52l-14.03-2.16-.15-1.28,10.46,1.61,2.08-1.94ZM256.67,541.45l1.31-8.54-5.44-.84-1.31,8.54,5.44.84ZM259.11,520.77l1.92-1.71s1.56,1.72,2.58,3.01c-.2.45-.61.6-1.21.51l-10.79-1.66-.14-1.33,7.65,1.18ZM255.83,507.04c7.76,3.59,4.66,8.72,2.14,6.42-.22-1.95-1.56-4.55-2.66-6.2l.51-.23ZM283.88,545.59s1.56,2.02,2.43,3.46c-.2.45-.62.6-1.21.51l-25.59-3.93-.15-1.29,3.23.5,2.22-14.45,2.69,1.76,13.35,2.05,1.68-1.57,3.09,3.13c-.41.42-.96.55-2.04.51l-1.77,11.52.17.03,1.91-2.23ZM261.15,529.31c2.8-.96,5.59-2.14,8.21-3.61l1.84-11.94,3.55.98c-.16.5-.61.82-1.43.83l-1.32,8.58c5.38-3.31,9.96-7.34,13.02-11.36l3.24,2.41c-.32.39-.77.45-1.75.08-3.43,3.91-8.65,7.89-14.83,10.99l-.03.17c-.09.6.05.79,1.54,1.02l3.78.58c1.79.28,3.19.45,3.67.48.42.06.61,0,.82-.26.33-.47,1.03-2.15,1.68-3.87l.55.08-.51,4.14c.8.43.98.72.9,1.23-.16,1.06-1.43,1.35-7.5.41l-4.17-.64c-2.46-.38-3.25-.93-3.27-2.2-2.42,1.02-5.04,1.92-7.66,2.56l-.33-.66ZM268.43,515.94c0,3.35-.93,6.03-1.95,7.27-.64.77-2.08,1.07-2.57.3-.41-.72.02-1.56.81-2.18.97-.94,2.49-3.49,2.91-5.6l.79.21ZM265.01,545.22l3.53.54,1.82-11.86-3.53-.54-1.82,11.86ZM275.67,534.72l-3.14-.48-1.82,11.86,3.15.48,1.82-11.86ZM275.46,509.54c6.96,4.51,3.97,9.53,1.85,7.2.07-2.16-1.25-5.15-2.4-7.03l.55-.18ZM277.88,535.06l-1.82,11.86,3.27.5,1.82-11.86-3.27-.5ZM284.09,519.31c7.12,4.62,4.06,9.54,1.98,7.18.03-2.17-1.26-5.11-2.55-6.92l.56-.26Z"/>
    <path class="cls-1" d="M319.62,513.66s2.39,1.5,3.81,2.7c-.08.48-.45.73-1.05.79l-7.19.7,1.01,4.18c-.34.55-1.29.9-2.45,1.02l-1.17-4.94-8.3.81-.46-1.21,8.47-.83-1.24-5.24,4.1-.1c-.03.57-.29,1.02-1.17,1.32l.88,3.76,3.08-.3,1.68-2.67ZM306.56,539.22c3.8-3.61,7.69-9.74,9.81-16.38l4.25,1.53c-.17.49-.69.89-1.65.81-.88,2.03-2.04,3.96-3.25,5.72l2.22.6c-.14.36-.49.7-1.25.9l1.68,17.25c-.02.22-1.17.89-2.19.99l-.51.05-1.7-17.42c-2.08,2.62-4.5,4.8-6.89,6.46l-.53-.51ZM339.66,511.71s2.39,1.5,3.81,2.7c-.04.48-.4.73-1,.79l-9.38.92-.3,4.48c-.48.44-1.49.66-2.67.52l.32-4.74-5.27.51-.46-1.21,5.82-.57.34-5.43,4.12.55c-.12.53-.51.96-1.58,1.06l-.21,3.56,4.84-.47,1.64-2.67ZM344.37,543.66c1.06.24,1.35.52,1.4,1.12.13,1.33-1.37,1.95-8.6,2.65l-5.01.49c-3.6.35-4.57-.33-4.8-2.73l-2.21-22.69,4.24.06c-.03.57-.38,1.03-1.3,1.25l.78,8,8.47-.83,1.76-2.77s2.4,1.58,3.95,2.81c-.08.48-.45.73-1.05.79l-13.01,1.27,1.09,11.17c.09.94.38,1.17,2.26.99l4.67-.45c2.14-.21,3.77-.37,4.4-.47.51-.14.66-.28.84-.73.27-.81.56-3.56.8-6.43l.56-.05.77,6.54Z"/>
    <path class="cls-1" d="M364.89,518.1l7.82,21.91c.13.37-.52,1.37-1.73,1.8l-.49.17-12.76-35.76,3.26.3,7.94-2.83.82-1.94,3.86,1.22c-.14.37-.59.9-1.24,1.26l3.9,10.94c.05.26-1.05,1.29-1.9,1.59l-.32.12-.65-1.82-8.51,3.04ZM361.22,507.81l1.39,3.89,8.51-3.03-1.39-3.89-8.51,3.03ZM372.97,513.89l-1.45-4.05-8.5,3.03,1.44,4.05,8.51-3.04ZM389.27,515.29c-.13.41-.58.94-1.22,1.3l4.41,12.35c.06.3-1,1.41-1.86,1.71l-.36.13-.78-2.19-9.84,3.51.61,1.7c.09.24-.75,1.23-1.8,1.6l-.4.14-5.87-16.44,3.12.3,9.31-3.32.83-2.03,3.86,1.23ZM375.51,520.61l1.57,4.41,9.84-3.51-1.57-4.41-9.84,3.51ZM392.73,496.2c-.17.42-.73,1.04-1.48,1.49l10.29,28.84c.77,2.15.85,3.67-2.85,5.45-.38-.82-.85-1.48-1.52-1.7-.81-.21-1.94-.18-3.86.19l-.23-.65s4.21-1.14,5.06-1.44c.77-.27.93-.61.7-1.25l-6.69-18.75-8.83,3.15.32.89c.09.24-.85,1.22-1.94,1.61l-.36.13-5.13-14.38,3.17.19,8.26-2.95.75-2.14,4.35,1.32ZM389.02,527.39l-1.66-4.66-9.84,3.51,1.66,4.66,9.84-3.51ZM379.64,501.24l1.39,3.89,8.83-3.15-1.39-3.89-8.83,3.15ZM391.72,507.2l-1.45-4.05-8.83,3.15,1.45,4.05,8.83-3.15Z"/>
  </g>
  <path class="cls-1" d="M183.98,501.29c-10.48-6.42-20.46-13.65-29.81-21.64-9.34-7.98-18.04-16.72-26-26.08-7.97-9.36-15.19-19.35-21.59-29.84s-12.04-21.67-16.71-33.14-8.55-23.77-11.33-36.09c-2.83-12.55-4.61-25.34-5.33-38.18-.78-13.9-.33-27.87,1.36-41.68,1.69-13.84,4.63-27.52,8.78-40.83,4.06-13.04,9.29-25.71,15.59-37.83,6.26-12.03,13.6-23.51,21.86-34.27,2.02-2.63,4.1-5.21,6.22-7.75.51-.6-1.21-.93-1.5-.98-.65-.11-2.27-.34-2.79.28-8.7,10.39-16.5,21.51-23.27,33.25-6.8,11.78-12.58,24.16-17.22,36.95-4.77,13.15-8.34,26.74-10.66,40.54-2.35,14.03-3.41,28.27-3.19,42.49.2,13.02,1.49,26.03,3.85,38.83,2.3,12.42,5.62,24.65,9.9,36.54,4.23,11.74,9.42,23.14,15.49,34.05,6.04,10.86,12.96,21.23,20.66,30.99,7.63,9.67,16.03,18.74,25.09,27.1,9.05,8.34,18.75,15.99,28.99,22.82,2.52,1.68,5.08,3.31,7.67,4.9.85.52,2.08.6,3.04.48.39-.05,1.73-.38.88-.9h0Z"/>
  <path class="cls-1" d="M479.28,153.63c8.61,10.29,16.35,21.29,23.07,32.9,6.79,11.71,12.55,24.02,17.19,36.74,4.75,13.01,8.3,26.46,10.63,40.11,2.37,13.91,3.47,28.03,3.31,42.13-.15,12.94-1.36,25.86-3.65,38.6-2.23,12.41-5.47,24.63-9.68,36.5-4.17,11.73-9.28,23.13-15.28,34.03-5.92,10.75-12.7,21.04-20.25,30.72-7.52,9.65-15.79,18.71-24.72,27.07-8.98,8.41-18.63,16.1-28.83,22.99-2.49,1.68-5.02,3.32-7.57,4.9-.79.49.24.88.73,1.02.79.22,2.32.46,3.08-.02,10.45-6.48,20.4-13.74,29.71-21.76,9.31-8.02,17.99-16.78,25.93-26.16,8-9.45,15.24-19.54,21.64-30.14,6.39-10.58,11.94-21.68,16.56-33.14,4.72-11.68,8.47-23.75,11.22-36.05,2.81-12.59,4.57-25.42,5.26-38.3.75-13.99.26-28.06-1.49-41.96-1.74-13.83-4.72-27.49-8.92-40.78-4.09-12.96-9.31-25.55-15.6-37.6-6.25-11.97-13.55-23.39-21.77-34.09-2.02-2.63-4.1-5.21-6.22-7.75-.56-.67-1.92-.71-2.72-.7-.23,0-2.12.15-1.63.74h0Z"/>
</svg>